<?xml version="1.0" encoding="utf-8"?>
<!-- Svg Vector Icons : http://www.onlinewebfonts.com/icon -->
<!DOCTYPE svg PUBLIC "-//W3C//DTD SVG 1.1//EN" "http://www.w3.org/Graphics/SVG/1.1/DTD/svg11.dtd">
<svg version="1.1" xmlns="http://www.w3.org/2000/svg" xmlns:xlink="http://www.w3.org/1999/xlink" x="0px" y="0px" viewBox="0 0 256 256" enable-background="new 0 0 256 256" xml:space="preserve">
<metadata> Svg Vector Icons : http://www.onlinewebfonts.com/icon </metadata>
<g><g><g><g><g><path fill="#000000" d="M128,10C62.8,10,10,62.8,10,128c0,65.2,52.8,118,118,118c65.2,0,118-52.8,118-118C246,62.8,193.2,10,128,10z M73.6,186.3c-3.1-3.1-3.1-8.2,0-11.2l41.9-47.4L73.6,80.3c-3.1-3.1-3.1-8.2,0-11.2s8.1-3.1,11.2,0l46.8,52.9c1.6,1.6,2.3,3.7,2.3,5.7c0.1,2.1-0.7,4.2-2.3,5.8l-46.8,52.9C81.8,189.5,76.7,189.5,73.6,186.3z M188.4,133.5l-46.8,52.9c-3.1,3.1-8.2,3.1-11.2,0c-3.1-3.1-3.1-8.2,0-11.2l41.9-47.4l-41.9-47.4c-3.1-3.1-3.1-8.1,0-11.2c3.1-3.1,8.1-3.1,11.2,0l46.8,52.9c1.6,1.6,2.3,3.7,2.3,5.7C190.7,129.8,190,131.9,188.4,133.5z"/></g></g></g><g></g><g></g><g></g><g></g><g></g><g></g><g></g><g></g><g></g><g></g><g></g><g></g><g></g><g></g><g></g></g></g>
</svg>